<?xml version="1.0" encoding="utf-8"?>
<!-- Generator: Adobe Illustrator 19.0.0, SVG Export Plug-In . SVG Version: 6.00 Build 0)  -->
<svg version="1.1" id="Layer_1" xmlns="http://www.w3.org/2000/svg" xmlns:xlink="http://www.w3.org/1999/xlink" x="0px" y="0px"
	 viewBox="0 0 2040.9 510.2" style="enable-background:new 0 0 2040.9 510.2;" xml:space="preserve">
<style type="text/css">
	.st0{clip-path:url(#SVGID_2_);fill:none;stroke:#000000;stroke-width:0.25;stroke-miterlimit:10;}
</style>
<g>
	<defs>
		<rect id="SVGID_1_" width="2040.9" height="510.2"/>
	</defs>
	<clipPath id="SVGID_2_">
		<use xlink:href="#SVGID_1_"  style="overflow:visible;"/>
	</clipPath>
	<path class="st0" d="M1020.5,78.7h-3.1l-718.4,0H155c0,0-40.5-0.1-40.5,28.4c0,17.3,1.5,53.9,1.5,53.9s-0.5,43.3,2,104.8
		c2,49.9,6.4,97.3,7.9,101.8c0.7,2,6.7,11.5,17.8,17.6c21.8,11.9,422.1,35.2,481.2,37.6c201.6,8,392.5,8.9,392.5,8.9s1.1,0,3.1-0.1"
		/>
	<path class="st0" d="M1020.5,78.7h3.1l718.4,0h144c0,0,40.5-0.1,40.5,28.4c0,17.3-1.5,53.9-1.5,53.9s0.5,43.3-2,104.8
		c-2,49.9-6.4,97.3-7.9,101.8c-0.7,2-6.7,11.5-17.8,17.6c-21.8,11.9-422.1,35.2-481.2,37.6c-201.6,8-392.5,8.9-392.5,8.9
		s-1.1,0-3.1-0.1"/>
	<circle class="st0" cx="399.8" cy="247" r="35"/>
	<circle class="st0" cx="586.6" cy="218.9" r="42.5"/>
	<circle class="st0" cx="566.8" cy="328.1" r="42.5"/>
	<circle class="st0" cx="681.3" cy="178.2" r="42.5"/>
	<circle class="st0" cx="661.7" cy="290.6" r="42.5"/>
	<circle class="st0" cx="784.9" cy="178.2" r="42.5"/>
	<circle class="st0" cx="888.4" cy="178.2" r="42.5"/>
	<circle class="st0" cx="764.9" cy="290.6" r="42.5"/>
	<circle class="st0" cx="1251.2" cy="247" r="35"/>
	<circle class="st0" cx="1435" cy="237.7" r="42.5"/>
	<circle class="st0" cx="1428.1" cy="348.4" r="42.5"/>
	<circle class="st0" cx="1524.2" cy="186.1" r="42.5"/>
	<circle class="st0" cx="1517.9" cy="300.1" r="42.5"/>
	<circle class="st0" cx="1627.1" cy="174" r="42.5"/>
	<circle class="st0" cx="1729.8" cy="161.8" r="42.5"/>
	<circle class="st0" cx="1620.5" cy="288" r="42.5"/>
</g>
</svg>
